# xmcd CD database file
#
# Track frame offsets:
#	150
#	17444
#	33595
#	47942
#	63140
#	79516
#	99190
#	115728
#	131067
#	148318
#	163176
#
# Disc length: 2399 seconds
#
# Revision: 1
# Processed by: cddbd v1.5.1PL0 Copyright (c) Steve Scherf et al.
# Submitted via: CDex 1.51
#
DISCID=8d095d0b
DTITLE=Jedd Hughes - Transcontinental
DYEAR=2004
DGENRE=Country
TTITLE0=I'm your man
TTITLE1=I'll keep moving
TTITLE2=Snake in the grass
TTITLE3=Time to say goodnight
TTITLE4=I don't have a clue
TTITLE5=Soldier for the lonely
TTITLE6=High lonesome
TTITLE7=All mixed up
TTITLE8=The only girl in town
TTITLE9=Damn! You feel good
TTITLE10=Luxury liner
EXTD=YEAR: 2004
EXTT0=
EXTT1=
EXTT2=
EXTT3=
EXTT4=
EXTT5=
EXTT6=
EXTT7=
EXTT8=
EXTT9=
EXTT10=
PLAYORDER=
